<svg xmlns="http://www.w3.org/2000/svg" viewBox="0 0 280 100" role="img" aria-label="Uzaa"><path d="M9 14H31V55A15 15 0 0 0 61 55V32H52L72 4L92 32H83V55A37 37 0 0 1 9 55Z" fill="#FFFFFF" stroke="#FFFFFF" stroke-width="3" stroke-linejoin="round"/><path d="M106.151677852349 92.0V79.43624161073825L139.0268456375839 43.210738255033554L141.3302013422819 48.44563758389262H107.51275167785235V34.83489932885906H155.255033557047V47.3986577181208L123.21744966442952 83.72885906040268L120.91409395973155 78.38926174496645H155.35973154362415V92.0Z M179.16375838926174 93.25637583892617Q172.98657718120808 93.25637583892617 168.48456375838927 91.26711409395973Q163.98255033557047 89.27785234899329 161.57449664429532 85.56107382550336Q159.16644295302015 81.84429530201342 159.16644295302015 76.71409395973154Q159.16644295302015 71.8979865771812 161.36510067114097 68.18120805369128Q163.56375838926175 64.46442953020134 168.11812080536913 61.95167785234899Q172.6724832214765 59.43892617449664 179.4778523489933 58.39194630872483L196.96241610738255 55.56510067114094V67.08187919463087L182.3046979865772 69.6993288590604Q178.9543624161074 70.32751677852349 177.1744966442953 71.84563758389262Q175.39463087248322 73.36375838926175 175.39463087248322 76.19060402684563Q175.39463087248322 78.80805369127516 177.38389261744967 80.27382550335571Q179.37315436241613 81.73959731543624 182.3046979865772 81.73959731543624Q186.1785234899329 81.73959731543624 189.11006711409397 80.06442953020135Q192.04161073825503 78.38926174496645 193.66442953020135 75.51006711409397Q195.28724832214766 72.63087248322148 195.28724832214766 69.17583892617449V54.308724832214764Q195.28724832214766 51.06308724832215 192.7221476510067 48.86442953020134Q190.15704697986578 46.665771812080536 185.75973154362418 46.665771812080536Q181.57181208053692 46.665771812080536 178.3785234899329 48.96912751677852Q175.18523489932886 51.272483221476506 173.71946308724833 55.04161073825503L161.15570469798658 49.0738255033557Q162.8308724832215 44.257718120805364 166.49530201342282 40.80268456375839Q170.15973154362416 37.34765100671141 175.28993288590604 35.46308724832215Q180.42013422818792 33.578523489932884 186.49261744966444 33.578523489932884Q193.71677852348995 33.578523489932884 199.26577181208054 36.19597315436241Q204.81476510067114 38.81342281879194 207.903355704698 43.47248322147651Q210.99194630872483 48.131543624161075 210.99194630872483 54.308724832214764V92.0H196.33422818791948V82.78657718120806L199.89395973154365 82.15838926174497Q197.3812080536913 85.92751677852348 194.34496644295302 88.38791946308724Q191.30872483221478 90.848322147651 187.53959731543625 92.05234899328859Q183.77046979865773 93.25637583892617 179.16375838926174 93.25637583892617Z M239.40268456375838 93.25637583892617Q233.2255033557047 93.25637583892617 228.7234899328859 91.26711409395973Q224.22147651006713 89.27785234899329 221.81342281879196 85.56107382550336Q219.4053691275168 81.84429530201342 219.4053691275168 76.71409395973154Q219.4053691275168 71.8979865771812 221.60402684563758 68.18120805369128Q223.8026845637584 64.46442953020134 228.35704697986577 61.95167785234899Q232.91140939597315 59.43892617449664 239.71677852348995 58.39194630872483L257.2013422818792 55.56510067114094V67.08187919463087L242.54362416107384 69.6993288590604Q239.19328859060403 70.32751677852349 237.41342281879196 71.84563758389262Q235.63355704697986 73.36375838926175 235.63355704697986 76.19060402684563Q235.63355704697986 78.80805369127516 237.62281879194632 80.27382550335571Q239.61208053691274 81.73959731543624 242.54362416107384 81.73959731543624Q246.41744966442954 81.73959731543624 249.34899328859063 80.06442953020135Q252.2805369127517 78.38926174496645 253.90335570469801 75.51006711409397Q255.5261744966443 72.63087248322148 255.5261744966443 69.17583892617449V54.308724832214764Q255.5261744966443 51.06308724832215 252.96107382550338 48.86442953020134Q250.39597315436242 46.665771812080536 245.9986577181208 46.665771812080536Q241.81073825503356 46.665771812080536 238.61744966442953 48.96912751677852Q235.4241610738255 51.272483221476506 233.95838926174497 55.04161073825503L221.39463087248322 49.0738255033557Q223.06979865771814 44.257718120805364 226.73422818791948 40.80268456375839Q230.3986577181208 37.34765100671141 235.52885906040268 35.46308724832215Q240.65906040268456 33.578523489932884 246.73154362416108 33.578523489932884Q253.9557046979866 33.578523489932884 259.5046979865772 36.19597315436241Q265.0536912751678 38.81342281879194 268.1422818791947 43.47248322147651Q271.2308724832215 48.131543624161075 271.2308724832215 54.308724832214764V92.0H256.5731543624161V82.78657718120806L260.13288590604026 82.15838926174497Q257.6201342281879 85.92751677852348 254.58389261744966 88.38791946308724Q251.54765100671142 90.848322147651 247.7785234899329 92.05234899328859Q244.00939597315437 93.25637583892617 239.40268456375838 93.25637583892617Z" fill="#FFFFFF"/></svg>